<svg width="1000" height="1000" viewBox="0 0 1000 1000" xmlns="http://www.w3.org/2000/svg"><defs/><path fill="#d10809" transform="matrix(0.834934773654982 0 0 0.8349347736549819 18.0011448654449 25.469564425036282)" d="M 725.33908040211 444.9590619399 C 725.33908040211 442.1590619399 725.43908040211 439.2590619399 725.23908040211 436.4590619399 C 724.53908040211 428.0590619399 716.33908040211 423.9590619399 709.03908040211 427.9590619399 C 697.93908040211 433.9590619399 687.33908040211 441.4590619399 677.03908040211 448.6590619399 C 671.63908040211 452.3590619399 665.63908040211 456.1590619399 661.03908040211 460.7590619399 C 659.13908040211 462.6590619399 653.73908040211 468.0590619399 654.33908040211 471.1590619399 C 654.73908040211 473.1590619399 656.53908040211 471.6590619399 657.23908040211 470.9590619399 C 659.23908040211 469.0590619399 661.43908040211 467.4590619399 663.73908040211 466.1590619399 C 668.83908040211 463.2590619399 674.53908040211 461.2590619399 679.83908040211 458.8590619399 C 688.63908040211 454.7590619399 697.43908040211 450.4590619399 706.03908040211 445.9590619399 C 707.53908040211 445.1590619399 709.03908040211 444.3590619399 710.53908040211 443.5590619399 C 710.13908040211 471.9590619399 709.63908040211 500.3590619399 709.43908040211 528.7590619399 C 696.53908040211 521.3590619399 683.53908040211 514.0590619399 670.53908040211 506.6590619399 C 665.53908040211 503.8590619399 660.13908040211 501.2590619399 656.63908040211 496.5590619399 C 650.83908040211 488.8590619399 651.23908040211 478.6590619399 651.63908040211 469.4590619399 C 652.33908040211 454.0590619399 654.83908040211 435.7590619399 645.43908040211 422.4590619399 C 634.73908040211 407.3590619399 614.33908040211 406.6590619399 597.63908040211 406.5590619399 C 591.43908040211 406.5590619399 585.23908040211 406.5590619399 579.03908040211 406.5590619399 C 562.73908040211 406.5590619399 546.33908040211 406.4590619399 530.03908040211 406.4590619399 C 512.53908040211 406.3590619399 495.03908040211 406.3590619399 477.53908040211 406.2590619399 C 471.83908040211 406.2590619399 466.03908040211 406.2590619399 460.33908040211 406.1590619399 C 456.43908040211 406.1590619399 452.63908040211 406.1590619399 448.73908040211 406.1590619399 C 440.63908040211 406.1590619399 433.33908040211 410.4590619399 430.83908040211 418.4590619399 C 429.53908040211 422.5590619399 430.03908040211 427.2590619399 429.93908040211 431.5590619399 C 429.93908040211 434.7590619399 428.63908040211 528.3590619399 428.53908040211 536.0590619399 C 428.43908040211 544.8590619399 426.53908040211 555.7590619399 431.93908040211 563.3590619399 C 439.13908040211 573.4590619399 451.93908040211 571.4590619399 462.73908040211 571.4590619399 C 482.93908040211 571.4590619399 561.23908040211 570.0590619399 580.13908040211 568.7590619399 C 598.43908040211 567.5590619399 620.83908040211 565.2590619399 633.93908040211 550.7590619399 C 636.93908040211 547.3590619399 639.33908040211 543.3590619399 640.73908040211 539.0590619399 C 641.53908040211 536.6590619399 642.13908040211 534.2590619399 642.43908040211 531.7590619399 C 642.63908040211 530.0590619399 643.63908040211 526.0590619399 642.83908040211 524.4590619399 C 642.83908040211 523.6590619399 641.93908040211 523.0590619399 641.13908040211 523.4590619399 C 640.23908040211 523.8590619399 640.03908040211 525.6590619399 639.73908040211 526.5590619399 C 638.83908040211 528.8590619399 637.93908040211 531.0590619399 636.73908040211 533.2590619399 C 634.23908040211 537.8590619399 630.63908040211 541.8590619399 626.13908040211 544.6590619399 C 615.63908040211 550.8590619399 602.43908040211 551.3590619399 589.93908040211 550.7590619399 C 585.03908040211 550.5590619399 452.13908040211 547.5590619399 452.13908040211 547.4590619399 C 452.13908040211 546.0590619399 452.13908040211 544.6590619399 452.13908040211 543.2590619399 C 452.03908040211 538.0590619399 450.83908040211 452.8590619399 450.63908040211 426.4590619399 C 479.23908040211 426.3590619399 507.93908040211 426.2590619399 536.53908040211 426.1590619399 C 553.23908040211 426.0590619399 569.93908040211 426.0590619399 586.53908040211 425.9590619399 C 590.93908040211 425.9590619399 595.33908040211 425.9590619399 599.73908040211 425.9590619399 C 608.23908040211 425.9590619399 618.23908040211 425.6590619399 625.93908040211 430.0590619399 C 634.63908040211 434.9590619399 633.63908040211 446.9590619399 633.33908040211 455.4590619399 C 633.13908040211 461.2590619399 633.03908040211 467.0590619399 632.83908040211 472.8590619399 C 632.53908040211 483.2590619399 633.63908040211 493.8590619399 638.93908040211 503.0590619399 C 643.03908040211 510.2590619399 649.13908040211 515.5590619399 656.23908040211 519.4590619399 C 662.43908040211 522.8590619399 668.53908040211 526.2590619399 674.73908040211 529.5590619399 C 682.43908040211 533.7590619399 690.13908040211 537.9590619399 697.83908040211 542.1590619399 C 704.83908040211 545.9590619399 713.93908040211 553.1590619399 721.73908040211 547.3590619399 C 725.03908040211 544.8590619399 726.53908040211 540.7590619399 726.43908040211 536.6590619399 C 725.93908040211 506.1590619399 725.63908040211 475.5590619399 725.33908040211 444.9590619399 Z"/><path id="text" fill="#ececec" transform="matrix(0.9938212711825906 0 0 0.9938212711825904 -3.7208668393076194 423.98334014810774)" d="M 172.48457142857 208.28126628571 C 166.94857142857 205.30526628571 162.59657142857 201.17726628571 159.42857142857 195.89726628571 C 156.26057142857 190.61726628571 154.67657142857 184.64926628571 154.67657142857 177.99326628571 C 154.67657142857 171.33726628571 156.26057142857 165.36926628571 159.42857142857 160.08926628571 C 162.59657142857 154.80926628571 166.94857142857 150.68126628571 172.48457142857 147.70526628571 C 178.02057142857 144.72926628571 184.24457142857 143.24126628571 191.15657142857 143.24126628571 C 196.98057142857 143.24126628571 202.24457142857 144.26526628571 206.94857142857 146.31326628571 C 211.65257142857 148.36126628571 215.60457142857 151.30526628571 218.80457142857 155.14526628571 L 208.82057142857 164.36126628571 C 204.27657142857 159.11326628571 198.64457142857 156.48926628571 191.92457142857 156.48926628571 C 187.76457142857 156.48926628571 184.05257142857 157.40126628571 180.78857142857 159.22526628571 C 177.52457142857 161.04926628571 174.98057142857 163.59326628571 173.15657142857 166.85726628571 C 171.33257142857 170.12126628571 170.42057142857 173.83326628571 170.42057142857 177.99326628571 C 170.42057142857 182.15326628571 171.33257142857 185.86526628571 173.15657142857 189.12926628571 C 174.98057142857 192.39326628571 177.52457142857 194.93726628571 180.78857142857 196.76126628571 C 184.05257142857 198.58526628571 187.76457142857 199.49726628571 191.92457142857 199.49726628571 C 198.64457142857 199.49726628571 204.27657142857 196.84126628571 208.82057142857 191.52926628571 L 218.80457142857 200.74526628571 C 215.60457142857 204.64926628571 211.63657142857 207.62526628571 206.90057142857 209.67326628571 C 202.16457142857 211.72126628571 196.88457142857 212.74526628571 191.06057142857 212.74526628571 C 184.21257142857 212.74526628571 178.02057142857 211.25726628571 172.48457142857 208.28126628571 Z M 229.26857142857 144.39326628571 L 244.82057142857 144.39326628571 L 244.82057142857 211.59326628571 L 229.26857142857 211.59326628571 L 229.26857142857 144.39326628571 Z M 303.57257142857 211.59326628571 L 290.61257142857 192.87326628571 L 289.84457142857 192.87326628571 L 276.30857142857 192.87326628571 L 276.30857142857 211.59326628571 L 260.75657142857 211.59326628571 L 260.75657142857 144.39326628571 L 289.84457142857 144.39326628571 C 295.79657142857 144.39326628571 300.96457142857 145.38526628571 305.34857142857 147.36926628571 C 309.73257142857 149.35326628571 313.10857142857 152.16926628571 315.47657142857 155.81726628571 C 317.84457142857 159.46526628571 319.02857142857 163.78526628571 319.02857142857 168.77726628571 C 319.02857142857 173.76926628571 317.82857142857 178.07326628571 315.42857142857 181.68926628571 C 313.02857142857 185.30526628571 309.62057142857 188.07326628571 305.20457142857 189.99326628571 L 320.27657142857 211.59326628571 L 303.57257142857 211.59326628571 Z M 299.63657142857 160.08926628571 C 297.20457142857 158.07326628571 293.65257142857 157.06526628571 288.98057142857 157.06526628571 L 276.30857142857 157.06526628571 L 276.30857142857 180.48926628571 L 288.98057142857 180.48926628571 C 293.65257142857 180.48926628571 297.20457142857 179.46526628571 299.63657142857 177.41726628571 C 302.06857142857 175.36926628571 303.28457142857 172.48926628571 303.28457142857 168.77726628571 C 303.28457142857 165.00126628571 302.06857142857 162.10526628571 299.63657142857 160.08926628571 Z M 374.13257142857 211.59326628571 L 361.17257142857 192.87326628571 L 360.40457142857 192.87326628571 L 346.86857142857 192.87326628571 L 346.86857142857 211.59326628571 L 331.31657142857 211.59326628571 L 331.31657142857 144.39326628571 L 360.40457142857 144.39326628571 C 366.35657142857 144.39326628571 371.52457142857 145.38526628571 375.90857142857 147.36926628571 C 380.29257142857 149.35326628571 383.66857142857 152.16926628571 386.03657142857 155.81726628571 C 388.40457142857 159.46526628571 389.58857142857 163.78526628571 389.58857142857 168.77726628571 C 389.58857142857 173.76926628571 388.38857142857 178.07326628571 385.98857142857 181.68926628571 C 383.58857142857 185.30526628571 380.18057142857 188.07326628571 375.76457142857 189.99326628571 L 390.83657142857 211.59326628571 L 374.13257142857 211.59326628571 Z M 370.19657142857 160.08926628571 C 367.76457142857 158.07326628571 364.21257142857 157.06526628571 359.54057142857 157.06526628571 L 346.86857142857 157.06526628571 L 346.86857142857 180.48926628571 L 359.54057142857 180.48926628571 C 364.21257142857 180.48926628571 367.76457142857 179.46526628571 370.19657142857 177.41726628571 C 372.62857142857 175.36926628571 373.84457142857 172.48926628571 373.84457142857 168.77726628571 C 373.84457142857 165.00126628571 372.62857142857 162.10526628571 370.19657142857 160.08926628571 Z M 409.31657142857 204.77726628571 C 403.97257142857 199.46526628571 401.30057142857 191.88126628571 401.30057142857 182.02526628571 L 401.30057142857 144.39326628571 L 416.85257142857 144.39326628571 L 416.85257142857 181.44926628571 C 416.85257142857 193.48126628571 421.84457142857 199.49726628571 431.82857142857 199.49726628571 C 436.69257142857 199.49726628571 440.40457142857 198.04126628571 442.96457142857 195.12926628571 C 445.52457142857 192.21726628571 446.80457142857 187.65726628571 446.80457142857 181.44926628571 L 446.80457142857 144.39326628571 L 462.16457142857 144.39326628571 L 462.16457142857 182.02526628571 C 462.16457142857 191.88126628571 459.49257142857 199.46526628571 454.14857142857 204.77726628571 C 448.80457142857 210.08926628571 441.33257142857 212.74526628571 431.73257142857 212.74526628571 C 422.13257142857 212.74526628571 414.66057142857 210.08926628571 409.31657142857 204.77726628571 Z M 484.19657142857 210.58526628571 C 479.23657142857 209.14526628571 475.25257142857 207.27326628571 472.24457142857 204.96926628571 L 477.52457142857 193.25726628571 C 480.40457142857 195.36926628571 483.82857142857 197.06526628571 487.79657142857 198.34526628571 C 491.76457142857 199.62526628571 495.73257142857 200.26526628571 499.70057142857 200.26526628571 C 504.11657142857 200.26526628571 507.38057142857 199.60926628571 509.49257142857 198.29726628571 C 511.60457142857 196.98526628571 512.66057142857 195.24126628571 512.66057142857 193.06526628571 C 512.66057142857 191.46526628571 512.03657142857 190.13726628571 510.78857142857 189.08126628571 C 509.54057142857 188.02526628571 507.94057142857 187.17726628571 505.98857142857 186.53726628571 C 504.03657142857 185.89726628571 501.39657142857 185.19326628571 498.06857142857 184.42526628571 C 492.94857142857 183.20926628571 488.75657142857 181.99326628571 485.49257142857 180.77726628571 C 482.22857142857 179.56126628571 479.42857142857 177.60926628571 477.09257142857 174.92126628571 C 474.75657142857 172.23326628571 473.58857142857 168.64926628571 473.58857142857 164.16926628571 C 473.58857142857 160.26526628571 474.64457142857 156.72926628571 476.75657142857 153.56126628571 C 478.86857142857 150.39326628571 482.05257142857 147.88126628571 486.30857142857 146.02526628571 C 490.56457142857 144.16926628571 495.76457142857 143.24126628571 501.90857142857 143.24126628571 C 506.19657142857 143.24126628571 510.38857142857 143.75326628571 514.48457142857 144.77726628571 C 518.58057142857 145.80126628571 522.16457142857 147.27326628571 525.23657142857 149.19326628571 L 520.43657142857 161.00126628571 C 514.22857142857 157.48126628571 508.02057142857 155.72126628571 501.81257142857 155.72126628571 C 497.46057142857 155.72126628571 494.24457142857 156.42526628571 492.16457142857 157.83326628571 C 490.08457142857 159.24126628571 489.04457142857 161.09726628571 489.04457142857 163.40126628571 C 489.04457142857 165.70526628571 490.24457142857 167.41726628571 492.64457142857 168.53726628571 C 495.04457142857 169.65726628571 498.70857142857 170.76126628571 503.63657142857 171.84926628571 C 508.75657142857 173.06526628571 512.94857142857 174.28126628571 516.21257142857 175.49726628571 C 519.47657142857 176.71326628571 522.27657142857 178.63326628571 524.61257142857 181.25726628571 C 526.94857142857 183.88126628571 528.11657142857 187.43326628571 528.11657142857 191.91326628571 C 528.11657142857 195.75326628571 527.04457142857 199.25726628571 524.90057142857 202.42526628571 C 522.75657142857 205.59326628571 519.54057142857 208.10526628571 515.25257142857 209.96126628571 C 510.96457142857 211.81726628571 505.74857142857 212.74526628571 499.60457142857 212.74526628571 C 494.29257142857 212.74526628571 489.15657142857 212.02526628571 484.19657142857 210.58526628571 Z M 581.49257142857 156.87326628571 L 581.49257142857 174.63326628571 L 612.59657142857 174.63326628571 L 612.59657142857 187.11326628571 L 581.49257142857 187.11326628571 L 581.49257142857 211.59326628571 L 565.94057142857 211.59326628571 L 565.94057142857 144.39326628571 L 616.72457142857 144.39326628571 L 616.72457142857 156.87326628571 L 581.49257142857 156.87326628571 Z M 627.28457142857 144.39326628571 L 642.83657142857 144.39326628571 L 642.83657142857 211.59326628571 L 627.28457142857 211.59326628571 L 627.28457142857 144.39326628571 Z M 658.77257142857 144.39326628571 L 674.32457142857 144.39326628571 L 674.32457142857 198.92126628571 L 708.02057142857 198.92126628571 L 708.02057142857 211.59326628571 L 658.77257142857 211.59326628571 L 658.77257142857 144.39326628571 Z M 777.90857142857 211.59326628571 L 777.81257142857 171.27326628571 L 758.03657142857 204.48926628571 L 751.02857142857 204.48926628571 L 731.34857142857 172.13726628571 L 731.34857142857 211.59326628571 L 716.75657142857 211.59326628571 L 716.75657142857 144.39326628571 L 729.62057142857 144.39326628571 L 754.77257142857 186.15326628571 L 779.54057142857 144.39326628571 L 792.30857142857 144.39326628571 L 792.50057142857 211.59326628571 L 777.90857142857 211.59326628571 Z M 815.10857142857 210.58526628571 C 810.14857142857 209.14526628571 806.16457142857 207.27326628571 803.15657142857 204.96926628571 L 808.43657142857 193.25726628571 C 811.31657142857 195.36926628571 814.74057142857 197.06526628571 818.70857142857 198.34526628571 C 822.67657142857 199.62526628571 826.64457142857 200.26526628571 830.61257142857 200.26526628571 C 835.02857142857 200.26526628571 838.29257142857 199.60926628571 840.40457142857 198.29726628571 C 842.51657142857 196.98526628571 843.57257142857 195.24126628571 843.57257142857 193.06526628571 C 843.57257142857 191.46526628571 842.94857142857 190.13726628571 841.70057142857 189.08126628571 C 840.45257142857 188.02526628571 838.85257142857 187.17726628571 836.90057142857 186.53726628571 C 834.94857142857 185.89726628571 832.30857142857 185.19326628571 828.98057142857 184.42526628571 C 823.86057142857 183.20926628571 819.66857142857 181.99326628571 816.40457142857 180.77726628571 C 813.14057142857 179.56126628571 810.34057142857 177.60926628571 808.00457142857 174.92126628571 C 805.66857142857 172.23326628571 804.50057142857 168.64926628571 804.50057142857 164.16926628571 C 804.50057142857 160.26526628571 805.55657142857 156.72926628571 807.66857142857 153.56126628571 C 809.78057142857 150.39326628571 812.96457142857 147.88126628571 817.22057142857 146.02526628571 C 821.47657142857 144.16926628571 826.67657142857 143.24126628571 832.82057142857 143.24126628571 C 837.10857142857 143.24126628571 841.30057142857 143.75326628571 845.39657142857 144.77726628571 C 849.49257142857 145.80126628571 853.07657142857 147.27326628571 856.14857142857 149.19326628571 L 851.34857142857 161.00126628571 C 845.14057142857 157.48126628571 838.93257142857 155.72126628571 832.72457142857 155.72126628571 C 828.37257142857 155.72126628571 825.15657142857 156.42526628571 823.07657142857 157.83326628571 C 820.99657142857 159.24126628571 819.95657142857 161.09726628571 819.95657142857 163.40126628571 C 819.95657142857 165.70526628571 821.15657142857 167.41726628571 823.55657142857 168.53726628571 C 825.95657142857 169.65726628571 829.62057142857 170.76126628571 834.54857142857 171.84926628571 C 839.66857142857 173.06526628571 843.86057142857 174.28126628571 847.12457142857 175.49726628571 C 850.38857142857 176.71326628571 853.18857142857 178.63326628571 855.52457142857 181.25726628571 C 857.86057142857 183.88126628571 859.02857142857 187.43326628571 859.02857142857 191.91326628571 C 859.02857142857 195.75326628571 857.95657142857 199.25726628571 855.81257142857 202.42526628571 C 853.66857142857 205.59326628571 850.45257142857 208.10526628571 846.16457142857 209.96126628571 C 841.87657142857 211.81726628571 836.66057142857 212.74526628571 830.51657142857 212.74526628571 C 825.20457142857 212.74526628571 820.06857142857 212.02526628571 815.10857142857 210.58526628571 Z"/></svg>